<svg xmlns="http://www.w3.org/2000/svg" xmlns:xlink="http://www.w3.org/1999/xlink" style="background:0 0" width="200" height="200" class="ldi-z4qxps" preserveAspectRatio="xMidYMid" viewBox="0 0 100 100"><svg xmlns="http://www.w3.org/2000/svg" xmlns:xlink="http://www.w3.org/1999/xlink" style="transform-origin:50px 50px 0" id="圖層_1" x="0" y="0" version="1.1" viewBox="0 0 100 100" xml:space="preserve"><g style="transform-origin:50px 50px 0"><g style="transform-origin:50px 50px 0;transform:scale(.6)"><g style="transform-origin:50px 50px 0;animation-duration:1s;animation-delay:.0819121s;animation-direction:reverse" class="ld ld-fade"><g><style style="transform-origin:50px 50px 0px" type="text/css">.st3{fill:#333}.st4{fill:#66503a}.st16{fill:#f8b26a}.st26{fill:#ec6551}</style><g style="transform-origin:50px 50px 0"><path style="fill:#00c0ff" fill="#00c0ff" d="M77.47,90H22.53c-1.769,0-3.203-1.434-3.203-3.203V41.759h61.345v45.039C80.673,88.566,79.239,90,77.47,90z" class="st4"/></g><g style="transform-origin:50px 50px 0"><path style="fill:#333" fill="#333" d="M77.859,21.733H22.141c-1.691,0-3.203,1.053-3.79,2.639l-8.017,28.417c-0.918,2.639,0.919,5.442,3.565,5.442 h72.2c2.647,0,4.484-2.803,3.565-5.442l-8.017-28.417C81.062,22.786,79.55,21.733,77.859,21.733z" class="st16"/></g><g style="transform-origin:50px 50px 0"><rect style="fill:#333" width="17.892" height="22.005" x="52.057" y="67.995" fill="#333" class="st3"/></g><g style="transform-origin:50px 50px 0"><path style="fill:#00c0ff" fill="#00c0ff" d="M78.034,21.946H21.966c-1.457,0-2.639-1.181-2.639-2.639v-0.773c0-1.457,1.181-2.639,2.639-2.639h56.068 c1.457,0,2.639,1.181,2.639,2.639v0.773C80.673,20.764,79.491,21.946,78.034,21.946z" class="st4"/></g><g style="transform-origin:50px 50px 0"><path style="fill:#333" fill="#333" d="M40.371,38.581h-11.59c-1.163,0-2.093-0.966-2.049-2.128l0.851-22.32c0-2.383,1.749-4.132,3.907-4.132h6.17 c2.158,0,3.907,1.749,3.907,3.907l0.852,22.546C42.464,37.615,41.534,38.581,40.371,38.581z" class="st26"/></g><metadata xmlns:d="https://loading.io/stock/" style="transform-origin:50px 50px 0"><d:name style="transform-origin:50px 50px 0">house</d:name><d:tags style="transform-origin:50px 50px 0">house,home,building,farm,stable,pasture,cottage,band,hay,granary,ancient,funky</d:tags><d:license style="transform-origin:50px 50px 0">cc-by</d:license><d:slug style="transform-origin:50px 50px 0">z4qxps</d:slug></metadata></g></g></g></g><style style="transform-origin:50px 50px 0px" type="text/css">@keyframes ld-fade{0%{opacity:1}}@-webkit-keyframes ld-fade{0%{opacity:1}}path,rect{stroke-width:0}.ld.ld-fade{-webkit-animation:ld-fade 1s infinite linear;animation:ld-fade 1s infinite linear}</style></svg></svg>
